<?xml version="1.0" encoding="UTF-8" standalone="no"?>
<!-- Created with Inkscape (http://www.inkscape.org/) -->

<svg
   version="1.1"
   id="svg1"
   width="521.83765"
   height="520.20752"
   viewBox="0 0 521.83769 520.20751"
   sodipodi:docname="book-logo.svg"
   inkscape:version="1.3 (0e150ed6c4, 2023-07-21)"
   xmlns:inkscape="http://www.inkscape.org/namespaces/inkscape"
   xmlns:sodipodi="http://sodipodi.sourceforge.net/DTD/sodipodi-0.dtd"
   xmlns="http://www.w3.org/2000/svg"
   xmlns:svg="http://www.w3.org/2000/svg">
  <defs
     id="defs1">
    <clipPath
       clipPathUnits="userSpaceOnUse"
       id="clipPath11">
      <rect
         style="opacity:0.36;fill:none;fill-rule:evenodd;stroke:#1786c0;stroke-width:5;stroke-linecap:round;stroke-linejoin:round;paint-order:stroke markers fill"
         id="rect12"
         width="767.91998"
         height="661.94373"
         x="1425.7877"
         y="416.51364"
         ry="9.7014017" />
    </clipPath>
  </defs>
  <sodipodi:namedview
     id="namedview1"
     pagecolor="#505050"
     bordercolor="#ffffff"
     borderopacity="1"
     inkscape:showpageshadow="0"
     inkscape:pageopacity="0"
     inkscape:pagecheckerboard="1"
     inkscape:deskcolor="#505050"
     inkscape:zoom="0.61334517"
     inkscape:cx="213.58283"
     inkscape:cy="163.85553"
     inkscape:window-width="1920"
     inkscape:window-height="1017"
     inkscape:window-x="-8"
     inkscape:window-y="-8"
     inkscape:window-maximized="1"
     inkscape:current-layer="g1"
     showgrid="false">
    <inkscape:page
       x="0"
       y="0"
       width="521.83771"
       height="520.20752"
       id="page14"
       margin="0"
       bleed="0" />
  </sodipodi:namedview>
  <g
     inkscape:groupmode="layer"
     inkscape:label="Image"
     id="g1"
     transform="translate(-1543.1224,-590.96681)">
    <path
       style="fill:#000000"
       d="m 1425.5305,1277.5562 c -0.3654,-6.1875 -0.5223,-18.225 -0.3486,-26.75 l 0.3158,-15.5 15,-0.2721 c 13.924,-0.2525 15.3185,-0.109 19.4414,2 6.4901,3.3201 8.4226,6.5224 8.8861,14.7251 0.4464,7.9009 -1.7215,13.12 -6.8874,16.5811 -1.6139,1.0812 -2.9345,2.6409 -2.9347,3.4659 -2e-4,0.825 2.2496,4.875 4.9996,9 l 5,7.5 -3.7525,0.3256 c -4.1502,0.3601 -3.8029,0.683 -10.568,-9.8256 -4.1845,-6.5 -4.1845,-6.5 -11.527,-6.7957 -9.5825,-0.3858 -10.1575,0.1474 -10.1575,9.4182 0,7.3775 0,7.3775 -3.4014,7.3775 -3.4013,0 -3.4013,0 -4.0658,-11.25 z m 27.5937,-12.7685 c 6.1276,-1.702 8.8735,-5.3277 8.8735,-11.7166 0,-4.7654 -0.3783,-5.8159 -2.9643,-8.2315 -1.6304,-1.523 -4.3867,-3.0536 -6.125,-3.4013 -5.413,-1.0825 -17.4249,-0.718 -18.7107,0.5679 -0.775,0.7749 -1.2,4.7778 -1.2,11.3 0,6.5222 0.425,10.5251 1.2,11.3 1.4719,1.472 13.8532,1.5907 18.9265,0.1815 z m 31.8735,-2.9599 v -27.0216 h 19.0664 c 19.0664,0 19.0664,0 18.75,2.75 -0.3164,2.75 -0.3164,2.75 -15.3164,3.25 l -15,0.5 -0.295,7.9132 c -0.2109,5.6552 0.074,8.1476 1,8.7347 0.7122,0.4518 6.8075,0.8284 13.545,0.8368 12.25,0.015 12.25,0.015 12.25,2.9863 0,2.971 0,2.971 -13.25,3.25 l -13.25,0.279 v 8.5 8.5 l 15.5,0.5 c 15.5,0.5 15.5,0.5 15.5,3 0,2.5 0,2.5 -19.25,2.7716 l -19.25,0.2716 z m 47,26.0275 c 0,-0.523 5.1129,-12.5605 11.362,-26.75 11.362,-25.7991 11.362,-25.7991 15.8087,-26.0961 4.4468,-0.297 4.4468,-0.297 15.888,25.9159 6.2927,14.4171 11.6013,26.6182 11.7968,27.1136 0.1956,0.4955 -1.3725,0.7583 -3.4846,0.5842 -3.5501,-0.2928 -4.0309,-0.7164 -6.365,-5.609 -1.3886,-2.9107 -3.1955,-5.7163 -4.0153,-6.2347 -1.9652,-1.2424 -25.607,-1.2487 -27.9263,-0.01 -0.9922,0.5311 -2.8149,3.4561 -4.0504,6.5 -2.1022,5.1797 -2.4631,5.5345 -5.6301,5.5345 -1.8611,0 -3.3838,-0.4279 -3.3838,-0.9509 z m 37.9878,-19.7991 c -0.023,-3.3108 -9.4388,-23.75 -10.9411,-23.75 -1.7439,0 -11.4619,21.9757 -10.6517,24.0871 0.4196,1.0934 2.9235,1.4129 11.0736,1.4129 9.3678,0 10.53,-0.1933 10.5192,-1.75 z m 28.0122,-6.3378 v -27.0879 l 15.75,0.3519 c 17.84,0.3987 20.8805,1.3518 27.4268,8.5978 5.2077,5.7643 7.1957,11.7749 6.6086,19.9807 -0.5528,7.7263 -2.4731,12.1455 -7.6049,17.5017 -5.8602,6.1166 -11.7892,7.7436 -28.2181,7.7436 h -13.9624 z m 29.1007,19.9155 c 5.4047,-1.864 8.7261,-4.8392 11.406,-10.2171 5.5097,-11.0565 1.1572,-23.546 -10.0067,-28.7147 -4.7516,-2.1999 -20.3105,-2.6855 -22.3,-0.6959 -1.2668,1.2668 -1.7934,36.0903 -0.5931,39.2182 0.7533,1.963 16.1394,2.2561 21.4938,0.4095 z m 33.8993,-19.8277 v -27 h 19.0664 c 19.0664,0 19.0664,0 18.75,2.75 -0.3164,2.75 -0.3164,2.75 -15.3164,3.25 l -15,0.5 -0.2893,7.595 c -0.2078,5.4542 0.092,7.9114 1.0636,8.7177 0.7947,0.6596 6.483,1.2392 13.7892,1.405 12.4365,0.2823 12.4365,0.2823 12.4365,2.7823 0,2.5 0,2.5 -13.5,3 l -13.5,0.5 v 8.5 8.5 l 15.5,0.5 c 15.5,0.5 15.5,0.5 15.8164,3.25 0.3164,2.75 0.3164,2.75 -19.25,2.75 h -19.5664 z m 53.4509,25.7328 c -0.2674,-0.697 -0.3658,-12.7345 -0.2186,-26.75 l 0.2677,-25.4828 13.2844,-0.2793 c 15.4563,-0.3249 20.3282,0.6919 24.8156,5.1793 7.7751,7.7751 6.2673,23.5145 -2.6966,28.1499 -4.0101,2.0737 -3.6738,4.0395 2.0966,12.2562 2.75,3.9159 5,7.3614 5,7.6568 0,0.2954 -1.5861,0.5371 -3.5247,0.5371 -3.13,0 -3.8297,-0.5167 -6.25,-4.6151 -7.2766,-12.322 -7.358,-12.3849 -16.0316,-12.3849 -4.7285,0 -8.2657,0.472 -8.9937,1.2 -0.7142,0.7142 -1.2,4.1556 -1.2,8.5 0,7.3 0,7.3 -3.0314,7.3 -1.6673,0 -3.2502,-0.5702 -3.5177,-1.2672 z m 29.5672,-23.3567 c 4.8214,-1.9292 6.9819,-5.5198 6.9819,-11.6039 0,-8.7555 -4.9614,-11.7722 -19.3609,-11.7722 -7.672,0 -9.5381,0.2942 -10.0322,1.5818 -1.1442,2.9819 -0.6644,20.9608 0.5931,22.2182 1.8313,1.8313 16.9142,1.5382 21.8181,-0.4239 z m 33.3703,22.5536 c -6.8148,-2.6213 -9.0781,-5.1206 -7.5917,-8.3829 1.114,-2.4451 1.114,-2.4451 7.9086,1.101 6.1462,3.2078 7.404,3.5077 13.1794,3.1432 5.4616,-0.3447 6.7267,-0.8005 8.75,-3.1527 5.4694,-6.3586 1.9601,-10.9426 -11.9158,-15.5653 -14.4638,-4.8187 -18.6529,-10.0887 -15.5293,-19.5364 3.1199,-9.4367 18.5124,-12.8662 32.1574,-7.1649 3.8464,1.6071 4.4671,3.1417 2.403,5.9416 -1.1693,1.5861 -1.5898,1.5662 -6.5108,-0.3088 -9.4211,-3.5897 -18.0468,-2.2974 -20.2554,3.0345 -2.2138,5.3445 1.4488,8.882 13.3672,12.9106 10.9181,3.6906 14.268,6.0468 15.7821,11.1006 2.2198,7.4088 -2.158,15.182 -10.0324,17.8137 -5.2676,1.7606 -15.8952,1.3033 -21.7123,-0.9342 z m 72.1116,0.067 c -2.75,-1.11 -6.0957,-2.8655 -7.4348,-3.9012 -2.3605,-1.8258 -2.3827,-1.9625 -0.7274,-4.4888 1.7073,-2.6056 1.7073,-2.6056 5.4347,-0.2109 5.4809,3.5212 10.7611,4.8901 16.8989,4.3811 6.4648,-0.5361 9.6619,-3.0938 9.6619,-7.7299 0,-4.7855 -3.6433,-7.7676 -13.0872,-10.7121 -13.0719,-4.0756 -17.2038,-7.7537 -17.2277,-15.3353 -0.016,-5.1756 3.272,-9.7986 8.6671,-12.1851 7.2946,-3.2267 22.8848,-1.7382 28.1019,2.6831 0.1581,0.1339 -0.2596,1.4441 -0.9281,2.9114 -0.8425,1.8491 -1.698,2.4657 -2.7875,2.009 -13.0926,-5.4876 -25.0718,-3.9492 -25.0718,3.2199 0,5.351 3.2927,8.0742 13.3781,11.064 12.0817,3.5816 16.6242,7.7316 16.6181,15.1826 0,5.6415 -2.6802,10.3754 -7.202,12.7424 -5.1496,2.6956 -18.0452,2.8919 -24.2942,0.3698 z m 46.5,-24.9971 c 0,-27 0,-27 3,-27 3,0 3,0 3,11.3776 0,8.4754 0.3534,11.6708 1.3854,12.5274 0.9424,0.782 6.1398,1.0611 16.25,0.8724 l 14.8646,-0.2774 0.5,-12 c 0.5,-12 0.5,-12 3.5,-12 3,0 3,0 3,26.5 0,26.5 0,26.5 -3,26.5 -3,0 -3,0 -3.286,-10.9632 -0.1886,-7.2274 -0.6997,-11.2261 -1.5,-11.7347 -1.8246,-1.1594 -27.5541,-0.958 -29.7798,0.2331 -1.7318,0.9268 -1.9342,2.1829 -1.9342,12 0,10.9648 0,10.9648 -3,10.9648 -3,0 -3,0 -3,-27 z m 64.6666,26.3333 c -0.3666,-0.3666 -0.6666,-12.5166 -0.6666,-27 v -26.3333 h 18.4409 c 10.1426,0 18.694,0.4094 19.0033,0.9098 0.3092,0.5003 0.2876,1.6253 -0.048,2.5 -0.5121,1.3346 -2.5916,1.5902 -12.9381,1.5902 -6.7804,0 -13.5005,0.4458 -14.9336,0.9907 -2.5531,0.9707 -2.5999,1.1574 -2.3151,9.25 l 0.2906,8.2593 13.25,0.279 c 13.2252,0.2785 13.25,0.2835 13.25,2.6685 0,2.375 -0.076,2.3914 -12.5827,2.721 -10.4265,0.2747 -12.795,0.6222 -13.8211,2.028 -1.384,1.8958 -1.5967,15.1363 -0.2646,16.4705 0.4574,0.4582 7.5449,0.9868 15.75,1.1747 14.9184,0.3417 14.9184,0.3417 14.9184,2.75 0,2.4083 0,2.4083 -18.3334,2.4083 -10.0833,0 -18.6333,-0.3 -19,-0.6667 z m 53.3334,-26.3997 c 0,-27.0664 0,-27.0664 2.75,-26.75 2.75,0.3164 2.75,0.3164 3.0185,23.5982 0.3142,27.2441 -0.8745,25.2182 14.7966,25.2182 9.3972,0 9.4349,0.01 9.4349,2.5 0,2.5 0,2.5 -15,2.5 h -15 z m 54.6666,26.3997 c -0.3666,-0.3666 -0.6666,-10.9258 -0.6666,-23.4648 0,-26.4703 0.7087,-24.8685 -11.0039,-24.8685 -6.8275,0 -7.1215,-0.097 -6.8157,-2.25 0.3182,-2.2407 0.4054,-2.2511 21.0696,-2.5203 20.75,-0.2703 20.75,-0.2703 20.75,2.1441 0,2.3191 -0.3129,2.4286 -7.9205,2.7741 -4.3563,0.1979 -8.2938,0.7321 -8.75,1.1873 -0.4563,0.4552 -0.9652,11.366 -1.1309,24.2462 -0.3014,23.4186 -0.3014,23.4186 -2.5834,23.4186 -1.255,0 -2.5819,-0.3 -2.9486,-0.6667 z m 35.7843,-0.6005 c -0.2674,-0.697 -0.3658,-12.7345 -0.2186,-26.75 l 0.2677,-25.4828 18.25,-0.2726 c 18.25,-0.2725 18.25,-0.2725 18.25,2.25 0,2.5226 0,2.5226 -13.9286,2.5226 -16.8884,0 -17.0784,0.1094 -17.0561,9.8214 0.01,3.6733 0.3637,7.227 0.7895,7.8972 0.5275,0.8301 4.9057,1.3082 13.7347,1.5 12.5812,0.2732 12.9698,0.3472 13.28,2.5314 0.3168,2.2304 0.2105,2.25 -12.1786,2.25 -15.3201,0 -15.6409,0.2051 -15.6409,10 0,9.9544 0.08,10 17.5714,10 14.4286,0 14.4286,0 14.4286,2.5 0,2.5 0,2.5 -18.5314,2.5 -14.0369,0 -18.6494,-0.3073 -19.0177,-1.2672 z m 53.0257,0.067 c -0.2816,-0.7338 -0.3915,-12.8015 -0.2443,-26.817 l 0.2677,-25.4828 11.4258,-0.2844 c 18.4,-0.458 26.3138,2.3271 29.7101,10.4556 3.2117,7.6865 0.3391,18.3816 -6.0485,22.5204 -1.9595,1.2696 -3.5683,2.8912 -3.5751,3.6036 -0.01,0.7123 2.2561,4.6568 5.0287,8.7656 3.9261,5.8183 4.7131,7.5963 3.5584,8.0394 -3.175,1.2184 -5.1062,-0.3999 -10.0058,-8.3845 l -5.0835,-8.2843 -9.0051,0.2843 -9.005,0.2843 -0.5,8 c -0.4905,7.8467 -0.5529,8.0061 -3.2557,8.317 -1.6237,0.1867 -2.966,-0.2311 -3.2677,-1.0172 z m 29.9891,-23.221 c 8.3869,-3.5043 8.9168,-17.1151 0.8497,-21.8266 -3.5769,-2.089 -15.0912,-3.392 -20.6911,-2.3415 -3.6243,0.6799 -3.6243,0.6799 -3.6243,12.468 0,6.4834 0.3,12.088 0.6666,12.4546 1.2964,1.2964 19.318,0.7 22.7991,-0.7545 z m -537.3611,-79.1613 c -21.6944,-5.834 -34.9407,-26.0866 -31.3267,-47.8963 3.5837,-21.6272 21.2492,-35.4916 45.2221,-35.4916 13.7103,0 23.9697,3.9384 33.2042,12.7467 12.9535,12.3555 16.0943,30.667 8.2557,48.1335 -3.0105,6.7084 -11.4148,15.4961 -18.0645,18.8885 -9.8769,5.0388 -26.1417,6.6174 -37.2908,3.6192 z m 21.8773,-21.4083 c 16.8698,-8.6063 13.475,-37.1773 -4.8284,-40.6357 -7.2996,-1.3792 -16.7105,4.2417 -20.2886,12.1179 -7.7587,17.0789 9.3849,36.5438 25.117,28.5178 z m 76.7907,21.4358 c -21.4248,-5.1935 -34.0129,-22.5195 -32.4913,-44.72 1.5529,-22.6552 20.3173,-38.725 45.2187,-38.725 27.7512,0 46.5709,18.7162 45.3113,45.0622 -0.3646,7.6255 -0.8999,9.7325 -4.1374,16.283 -9.123,18.4592 -31.3409,27.5687 -53.9013,22.0998 z m 21.6978,-21.7267 c 16.6666,-9.4396 12.0793,-37.9571 -6.5067,-40.45 -11.443,-1.5348 -21.29,8.5921 -21.2101,21.8131 0.094,15.5103 15.2471,25.6995 27.7168,18.6369 z m 292.5883,21.726 c -28.391,-6.1562 -42.3659,-35.4248 -29.2051,-61.1665 12.5211,-24.4905 52.1418,-29.5274 73.485,-9.342 20.6006,19.4832 14.4555,54.9747 -11.6153,67.0851 -10.2898,4.7798 -21.1567,5.9187 -32.6646,3.4234 z m 18.6262,-20.5109 c 11.6132,-4.4001 15.8663,-22.4002 8.0376,-34.0171 -5.4874,-8.1427 -17.0641,-10.2649 -25.5092,-4.6762 -5.2548,3.4775 -9.2169,11.3152 -9.2036,18.2063 0.011,5.4736 3.3343,13.8748 6.5985,16.6784 5.3746,4.6164 13.7509,6.2054 20.0767,3.8086 z m 78.3577,20.9749 c -12.1341,-2.1156 -21.9834,-9.0152 -26.7629,-18.7477 -2.7797,-5.6606 -2.7797,-5.6606 -3.0977,-34.9419 l -0.318,-29.2813 12.318,0.2813 12.318,0.2813 0.5,26.5 c 0.328,17.3891 0.8981,27.1876 1.6581,28.5 6.8235,11.7831 22.7177,9.9661 26.2431,-3 0.6428,-2.3639 1.0899,-13.9185 1.0932,-28.25 l 0.01,-24.25 h 12 12 l -0.01,27.75 c 0,16.7987 -0.4336,29.3286 -1.0902,31.75 -2.6126,9.6358 -11.9138,18.8929 -22.0471,21.9426 -6.2668,1.886 -18.3203,2.598 -24.8145,1.4657 z m -890.0426,-29.7172 c 0,-22.2903 -0.3153,-30.2298 -1.25,-31.4777 -1.0103,-1.3489 -3.3593,-1.7211 -12.25,-1.9412 l -11,-0.2722 v -9.5 -9.5 l 37.25,-0.2622 37.25,-0.2621 v 9.9804 9.9804 l -11.75,0.2818 -11.75,0.2817 -0.2642,31.25 -0.2643,31.25 h -12.9857 -12.9858 z m 59,-11.6911 v -41.5 h 13 13 v 14.5658 c 0,8.1281 0.4575,15.4206 1.0351,16.5 0.9371,1.7509 2.1976,1.9342 13.3,1.9342 8.206,0 12.662,-0.3971 13.4649,-1.2 0.8287,-0.8287 1.2,-5.9333 1.2,-16.5 v -15.3 h 13 13 v 41.5 41.5 h -13 -13 v -14.3 c 0,-9.7889 -0.3786,-14.6785 -1.2,-15.5 -1.9442,-1.9441 -24.2286,-1.6286 -26.2286,0.3714 -1.2782,1.2782 -1.5714,4.171 -1.5714,15.5 v 13.9286 h -13 -13 z m 95.4618,40.2612 c -0.2669,-0.6955 -0.3675,-19.2638 -0.2235,-41.2629 l 0.2617,-39.9983 h 35 35 v 9 9 l -21.5,0.5 -21.5,0.5 -0.3,5.75 c -0.1649,3.1625 -0.1649,5.8379 0,5.9453 0.165,0.1074 9.075,0.4449 19.8,0.75 l 19.5,0.5547 v 9 9 l -19.5,0.5 -19.5,0.5 -0.3077,5.4054 c -0.2076,3.6472 0.1177,5.6751 1,6.2347 0.7192,0.4561 10.887,0.8362 22.5952,0.8446 l 21.2875,0.015 -0.2875,9.25 -0.2875,9.25 -35.2765,0.2628 c -27.7081,0.2065 -35.3806,-0.01 -35.7617,-1.0016 z m 109.5382,-40.1799 v -41.5813 h 25.2899 c 27.907,0 34.0823,0.8673 41.1158,5.7748 5.8045,4.05 7.8693,7.3917 8.3004,13.4337 0.463,6.4878 -2.3714,12.0652 -7.983,15.7091 -4.6459,3.0167 -4.6887,4.5304 -0.1885,6.6659 4.8632,2.3077 9.1153,7.7888 10.4909,13.5231 2.6693,11.1268 -3.3024,20.6454 -16.0255,25.544 -3.7831,1.4565 -9.0006,1.7946 -32.75,2.1223 l -28.25,0.3897 z m 42.8057,22.8076 c 7.9074,-1.5815 9.9417,-10.2666 3.1943,-13.6373 -4.1413,-2.0688 -16.9083,-2.4434 -18.8,-0.5516 -1.9663,1.9662 -1.544,12.5003 0.55,13.7199 1.9584,1.1407 10.3848,1.4031 15.0557,0.469 z m 3.0923,-33.7967 c 2.7774,-2.5135 2.7842,-7.6648 0.014,-10.1722 -2.5978,-2.351 -16.0514,-3.3787 -18.4265,-1.4076 -1.8507,1.5359 -2.0242,11.0356 -0.235,12.8673 2.0197,2.0676 16.0078,1.1019 18.648,-1.2875 z m 238.7978,51.7703 c -0.3827,-0.3827 -0.6958,-19.0843 -0.6958,-41.559 v -40.8632 l 12.75,0.2798 12.75,0.2799 0.2786,13.8178 c 0.2408,11.9376 0.4925,13.7746 1.85,13.5 0.8642,-0.1748 6.8332,-6.3928 13.2645,-13.8178 l 11.6931,-13.5 14.2069,-0.2774 c 7.8138,-0.1526 14.2069,0 14.2069,0.3447 0,0.3422 -6.075,7.5038 -13.5,15.9146 -7.425,8.4109 -13.5,15.9771 -13.5,16.8139 0,0.8368 6.7362,12.157 14.9694,25.156 9.8236,15.5099 14.5337,23.8016 13.7018,24.1209 -0.6971,0.2675 -7.5097,0.3606 -15.1389,0.2068 l -13.8714,-0.2795 -8.4216,-13.75 c -5.5347,-9.0365 -9.0087,-13.75 -10.1343,-13.75 -0.942,0 -3.2635,1.5978 -5.1589,3.5507 -3.3766,3.4792 -3.4562,3.7565 -3.9461,13.75 l -0.5,10.1993 -12.0542,0.2792 c -6.6297,0.1536 -12.3672,-0.034 -12.75,-0.4167 z m 119.9708,-0.029 c -0.3666,-0.3666 -0.6666,-19.0551 -0.6666,-41.5298 v -40.8632 l 12.75,0.2798 12.75,0.2799 -0.3581,8.2046 c -0.197,4.5125 -0.038,11.825 0.354,16.25 l 0.7122,8.0454 h 13.7793 c 16.4224,0 14.9792,1.8041 14.9989,-18.75 l 0.014,-14.25 h 12.511 12.5111 l -0.2611,41.25 -0.261,41.25 -12.25,0.2987 -12.25,0.2986 v -13.6144 c 0,-7.4879 -0.4659,-14.4848 -1.0352,-15.5486 -0.9414,-1.759 -2.2049,-1.9343 -13.941,-1.9343 -9.2265,0 -13.1365,0.3564 -13.7148,1.25 -0.445,0.6875 -0.9637,7.6625 -1.1528,15.5 l -0.3438,14.25 h -11.7395 c -6.4568,0 -12.0396,-0.3 -12.4063,-0.6667 z m 303.3591,-0.8385 c -8.3637,-1.887 -23.0257,-8.8729 -23.0257,-10.9709 0,-0.8626 1.7932,-5.1349 3.9849,-9.494 l 3.985,-7.9258 8.265,4.3633 c 17.9398,9.4709 31.7651,10.1068 31.7651,1.4612 0,-3.845 -3.6274,-6.0901 -14.4018,-8.9136 -22.0169,-5.7698 -28.9285,-11.6561 -28.9589,-24.6631 -0.026,-11.2761 7.1044,-20.3974 18.6548,-23.8623 11.8704,-3.561 28.5307,-2.6005 41.7657,2.4079 9.7652,3.6953 9.6306,3.3283 4.9422,13.4763 -3.2327,6.9972 -4.4393,8.7246 -5.7926,8.2925 -0.9402,-0.3002 -5.9844,-2.2025 -11.2094,-4.2275 -14.276,-5.5326 -23,-5.0404 -23,1.2978 0,2.6171 4.8523,6.1639 10.6465,7.7821 26.6017,7.4293 32.0259,11.5317 33.1103,25.0415 0.9103,11.3395 -3.9122,19.28 -14.7568,24.2979 -4.7658,2.2052 -7.1021,2.5818 -17.5,2.8212 -7.8585,0.1809 -14.2345,-0.2279 -18.4743,-1.1845 z m 62.213,-40.2448 0.2613,-40.75 h 34 34 l 0.2889,8.75 0.2889,8.75 h -20.3478 c -24.0402,0 -23.9957,-0.015 -23.5399,8.0304 l 0.3099,5.4696 19.5,0.5 19.5,0.5 0.2889,8.75 0.2889,8.75 h -18.3478 c -21.8249,0 -21.9914,0.062 -21.5399,8.0304 l 0.3099,5.4696 22.25,0.2691 22.25,0.2692 v 8.9808 8.9809 h -35.0113 -35.0112 z m -515.2387,-111.1066 c -7.5469,-2.9568 -21.3798,-10.8866 -24.2905,-13.9247 -1.5119,-1.5781 -3.1901,-4.4074 -3.7292,-6.2874 -0.6031,-2.1026 -0.9803,-33.60687 -0.9803,-81.859 0,-76.3638 -0.053,-78.5501 -1.9975,-82.567 -1.0986,-2.2694 -3.2361,-5.2902 -4.75,-6.7128 -2.2674,-2.1307 -56.7786,-32.9168 -72.0836,-40.7104 -5.1414,-2.6181 -8.8119,-2.1553 -12.2934,1.55 -2.3755,2.5284 -2.3755,2.5284 -2.6441,78.6534 -0.2685,76.1251 -0.2685,76.1251 -2.4243,78.4198 -1.1857,1.2621 -3.2847,2.2947 -4.6645,2.2947 -1.3799,0 -22.2832,-10.6875 -46.4519,-23.75 -46.689,-25.2341 -50.2354,-27.6254 -54.8419,-36.9801 -2.3488,-4.7699 -2.3488,-4.7699 -2.3488,-116.2699 0,-111.49999 0,-111.49999 2.9797,-116.88005 1.6388,-2.95903 4.7888,-6.93981 7,-8.84618 4.2334,-3.64989 216.6583,-126.49335 227.066,-131.31033 6.9806,-3.23081 19.1027,-5.96343 26.4543,-5.96343 6.9215,0 19.4296,2.65141 25.5,5.40538 2.75,1.2476 31.325,16.80403 63.5,34.56984 32.175,17.76582 78.075,43.09575 102,56.28873 23.925,13.19299 44.9501,25.06922 46.7225,26.39163 4.4742,3.3382 8.7722,9.90387 10.6728,16.304 2.3758,8.0002 2.1893,23.97408 -0.3377,28.9275 -2.259,4.42786 -2.3972,4.5266 -20.0846,14.34794 -7.4102,4.11467 -43.173,24.02987 -79.473,44.25597 -36.3,20.226 -87.825,48.8902 -114.5,63.6981 -26.9182,14.943 -49.7238,28.2405 -51.25,29.883 -5.9549,6.4085 -1.8778,17.9279 6.3452,17.9279 2.4354,0 34.1945,-17.2126 126.8113,-68.7282 69.0715,-38.4191 124.931,-68.8879 126.6659,-69.0905 5.6722,-0.6622 9.2856,5.8672 5.8078,10.4945 -1.0571,1.4066 -20.0473,12.7333 -43.3802,25.8742 -22.825,12.8548 -42.2875,24.3397 -43.25,25.522 -2.3209,2.8508 -2.3081,10.6842 0.022,13.561 2.1407,2.6427 5.4089,4.367 8.2771,4.367 1.1994,0 16.4382,-8.064 33.8641,-17.92 39.0851,-22.1065 37.846,-21.5022 41.3539,-20.1685 3.3063,1.2571 5.2243,4.9937 4.3504,8.4756 -0.7341,2.9246 -0.6792,2.8907 -45.6177,28.1339 -40.8763,22.9613 -41.6617,23.4409 -42.9257,26.2152 -2.0993,4.6074 -1.3294,10.1626 1.8487,13.3407 5.3465,5.3465 6.6308,4.8838 42.1046,-15.17 17.6031,-9.9513 33.3319,-18.5938 34.953,-19.2057 6.4917,-2.4503 12.2105,3.3067 8.9863,9.0466 -1.0469,1.8639 -13.349,9.2937 -42.9669,25.9497 -22.825,12.836 -42.5125,24.4802 -43.75,25.8761 -1.8033,2.034 -2.25,3.7336 -2.25,8.5591 0,5.3216 0.3396,6.3608 2.923,8.9442 5.0733,5.0733 6.7751,4.511 36.0922,-11.9255 14.5666,-8.1667 29.7763,-16.7917 33.7993,-19.1666 8.3913,-4.9538 12.5359,-5.5051 15.3413,-2.0407 1.5356,1.8964 1.8442,4.069 1.8442,12.9852 0,12.3969 -1.5331,18.6804 -6.2594,25.6548 -4.3865,6.473 -9.3117,9.6042 -55.2406,35.1191 -13.2,7.333 -25.0125,14.4747 -26.25,15.8705 -2.1286,2.4008 -2.2508,3.3852 -2.2637,18.2321 -0.016,18.16003 -0.3106,19.79343 -3.9085,21.65403 -2.353,1.2167 -4.5518,1.0373 -18.6229,-1.5199 -8.7752,-1.5947 -17.4767,-2.9085 -19.3365,-2.9197 -4.0118,-0.024 -3.5906,-0.428 -31.6227,30.33417 -19.5488,21.4527 -22.7077,24.2177 -26.2371,22.9656 -4.6135,-1.6368 -5.2586,-3.2287 -5.2586,-12.975 0,-8.0117 -0.2854,-9.6303 -2,-11.345 -1.1,-1.1 -2.7725,-2 -3.7165,-2 -0.9441,0 -13.4797,6.5223 -27.857,14.4939 -14.3773,7.9717 -28.0615,15.1717 -30.4093,16 -5.6616,1.9976 -15.4403,1.8345 -21.0172,-0.3505 z m 52.3191,-63.14457 c 26.104,-14.43863 29.8359,-16.80583 31.275,-19.83843 4.0237,-8.4795 -1.5634,-19.0039 -9.486,-17.8687 -4.5025,0.6452 -58.7523,30.6708 -61.8581,34.2366 -2.6179,3.00553 -3.0817,11.34343 -0.8545,15.36163 1.7381,3.136 5.4663,5.2004 8.6935,4.8139 1.424,-0.1706 15.9276,-7.6879 32.2301,-16.705 z m 0.1537,-43.77733 c 28.3831,-15.8346 30.0484,-16.9221 31.3983,-20.5047 2.7371,-7.2641 -1.8337,-15.0501 -8.8352,-15.0501 -4.4113,0 -61.8344,32.0428 -63.6236,35.5028 -2.4586,4.7544 -1.8268,10.5699 1.5107,13.9074 5.0756,5.0756 6.5289,4.5665 39.5498,-13.8554 z m -13.5135,-33.9216 c 31.5543,-17.3744 41.7078,-23.2746 43.5441,-25.3037 1.3232,-1.4621 1.8812,-3.5893 1.8812,-7.171 0,-4.4692 -0.3926,-5.4431 -3.2081,-7.9588 -1.8771,-1.6771 -4.3425,-2.8653 -5.9423,-2.8637 -3.3428,0 -59.7292,30.9836 -62.9842,34.6054 -6.0233,6.7018 0.2912,19.5917 8.7093,17.7785 1.3526,-0.2914 9.4526,-4.3804 18,-9.0867 z m -190.2738,-21.4742 c 2.2173,-2.083 2.3145,-2.7963 2.3145,-16.99 v -14.8156 l -8.9801,-4.5101 c -4.939,-2.4805 -9.6741,-4.51 -10.5225,-4.51 -1.3435,0 -1.5074,2.3469 -1.27,18.1887 l 0.2726,18.1886 5.5,3.3072 c 6.4266,3.8644 9.4931,4.1403 12.6855,1.1412 z m -38.6427,-33.9062 c 0.2986,-9.0307 0.3536,-17.0063 0.1223,-17.7236 -0.5799,-1.7978 -18.0558,-10.4518 -19.7746,-9.7923 -1.0966,0.4208 -1.3905,3.5204 -1.3905,14.6639 0,18.1302 0.5671,19.4595 10.8783,25.4955 4.1773,2.4452 8.051,4.2952 8.6083,4.1109 0.5995,-0.1981 1.2351,-7.0415 1.5562,-16.7544 z m 40.7323,-36.5848 c 0.2541,-13.8557 0.1182,-15.2006 -1.7809,-17.6149 -2.7088,-3.4436 -16.8506,-11.2634 -18.1036,-10.0105 -0.536,0.536 -0.8231,8.0201 -0.6663,17.3663 l 0.2757,16.4244 9,4.7114 c 4.95,2.5913 9.45,4.5793 10,4.4178 0.5929,-0.174 1.1119,-6.3995 1.2751,-15.2945 z m -40.3821,-6.9165 c 1.021,-2.6609 0.6737,-30.4249 -0.4059,-32.4422 -1.249,-2.3338 -12.9126,-8.976 -15.7618,-8.976 -4.7345,0 -5.2969,2.0634 -5.0009,18.347 l 0.2756,15.153 9,4.7136 c 9.9609,5.2168 11.0121,5.5001 11.893,3.2046 z m 83.6795,115.9469 c -5.1721,-6.5753 0.855,-15.0293 8.7522,-12.2763 8.1474,2.8401 5.8607,14.9112 -2.8247,14.9112 -2.9734,0 -4.3288,-0.6025 -5.9275,-2.6349 z"
       id="path8"
       clip-path="url(#clipPath11)"
       transform="translate(-8.1520774,73.764542)" />
  </g>
</svg>
