<?xml version="1.0" encoding="UTF-8" standalone="no"?>
<!-- Created with Inkscape (http://www.inkscape.org/) -->

<svg
   width="352.45285mm"
   height="52.402081mm"
   viewBox="0 0 352.45285 52.402081"
   version="1.1"
   id="svg1"
   inkscape:version="1.3 (0e150ed6c4, 2023-07-21)"
   sodipodi:docname="logo-text-900.svg"
   xmlns:inkscape="http://www.inkscape.org/namespaces/inkscape"
   xmlns:sodipodi="http://sodipodi.sourceforge.net/DTD/sodipodi-0.dtd"
   xmlns="http://www.w3.org/2000/svg"
   xmlns:svg="http://www.w3.org/2000/svg">
  <sodipodi:namedview
     id="namedview1"
     pagecolor="#505050"
     bordercolor="#ffffff"
     borderopacity="1"
     inkscape:showpageshadow="0"
     inkscape:pageopacity="0"
     inkscape:pagecheckerboard="1"
     inkscape:deskcolor="#505050"
     inkscape:document-units="mm"
     inkscape:zoom="0.73139029"
     inkscape:cx="481.27519"
     inkscape:cy="317.88773"
     inkscape:window-width="1920"
     inkscape:window-height="1017"
     inkscape:window-x="-8"
     inkscape:window-y="-8"
     inkscape:window-maximized="1"
     inkscape:current-layer="layer1" />
  <defs
     id="defs1" />
  <g
     inkscape:label="Layer 1"
     inkscape:groupmode="layer"
     id="layer1"
     transform="translate(71.437505,-122.2375)">
    <path
       style="fill:#000000;stroke-width:0.264583"
       d="m -71.293624,174.03751 -0.143881,-0.59531 0.07271,-25.53229 0.07268,-25.53229 h 8.863542 8.863541 l 0.06787,19.24844 0.06789,19.24843 h 11.772212 11.772238 v 6.87917 6.87916 h -20.632446 -20.632473 z m 46.347697,0.41892 -0.176398,-0.1764 V 148.2627 122.24533 h 8.863542 8.8635412 v 26.19374 26.19375 h -8.6871442 -8.68717 z m 26.1392717,-0.15433 -0.1260475,-0.33073 0.06821,-25.79688 0.06821,-25.79687 h 16.6687498 16.66875 l 1.949318,0.33795 1.949317,0.33796 2.112619,0.69823 2.112645,0.69823 1.585119,1.02452 1.585145,1.02452 1.276085,1.33094 1.276086,1.33094 0.732075,1.49631 0.732076,1.4963 0.339143,1.95023 0.339143,1.95022 -0.375841,1.96425 -0.375814,1.96424 -0.975519,1.85644 -0.975545,1.85644 -1.320139,1.18691 -1.320138,1.18692 -0.758825,0.44825 -0.758825,0.44825 v 0.19311 0.19311 l 1.885368,0.99074 1.885368,0.99071 1.624647,1.6034 1.624674,1.60338 0.738664,1.51294 0.738637,1.51291 0.422434,2.05896 0.42246,2.05894 -0.315145,2.19704 -0.315145,2.19708 -0.612378,1.3748 -0.612352,1.37483 -1.085612,1.36588 -1.085612,1.36589 -2.018876,1.32535 -2.018851,1.32537 -2.557383,0.81238 -2.557356,0.8124 -2.710233,0.39897 -2.710233,0.39896 H 17.865905 1.3193922 Z m 31.7361353,-12.77951 1.034071,-0.54253 0.487283,-0.90855 0.487257,-0.90856 v -1.08947 -1.0895 l -0.604573,-0.899 -0.604573,-0.89903 -1.049073,-0.52427 -1.049073,-0.5243 -6.482291,-0.005 -6.482292,-0.005 -0.0731,4.04768 -0.07311,4.04764 6.687688,-0.0789 6.687688,-0.0789 z m -3.201537,-19.58943 1.234122,-0.42051 0.654579,-0.77791 0.654553,-0.7779 0.169042,-0.90101 0.169016,-0.90101 -0.309933,-0.93915 -0.309959,-0.93915 -0.676831,-0.5324 -0.676857,-0.53241 -1.089925,-0.31636 -1.089951,-0.31636 -4.894791,-0.0153 -4.894792,-0.0153 -0.07321,3.90261 -0.07324,3.9026 h 4.987026 4.987025 z m 29.287231,6.50591 v -26.19374 l 13.824479,0.002 13.824479,0.002 2.311585,0.26487 2.311585,0.26485 1.392582,0.36879 1.392581,0.36877 1.322917,0.44858 1.322917,0.44857 1.984375,1.07828 1.984376,1.07828 2.13127,2.13682 2.13125,2.13681 1.08275,2.11667 1.08278,2.11666 0.39592,1.5875 0.39595,1.5875 0.17947,2.11667 0.17947,2.11667 -0.27308,2.15742 -0.2731,2.15742 -0.67885,1.94361 -0.67881,1.94363 -0.95454,1.43809 -0.95453,1.43806 -1.20084,1.28381 -1.20087,1.28381 -1.80877,1.20248 -1.808769,1.20245 0.170815,0.30898 0.170815,0.30898 1.963579,2.91042 1.96358,2.91042 3.15944,4.62878 3.15944,4.6288 v 0.19984 0.19987 l -9.326559,-0.008 -9.326562,-0.008 -0.419841,-0.587 -0.419815,-0.587 -4.028625,-6.02933 -4.028625,-6.02932 -2.298435,0.0762 -2.298409,0.0762 -0.07078,6.54843 -0.07075,6.54844 H 67.874081 59.01517 Z m 27.648958,-0.89815 1.058333,-0.45059 0.995469,-0.97002 0.995442,-0.97001 0.259847,-0.9353 0.259821,-0.93529 -0.0042,-1.45521 -0.0042,-1.45521 -0.481833,-1.0606 -0.481806,-1.06061 -0.964115,-0.84649 -0.964089,-0.84649 -1.127972,-0.32216 -1.127945,-0.32216 -4.101041,-0.0197 -4.101042,-0.0197 -0.07146,5.81457 -0.07149,5.81456 0.142451,0.37124 0.142452,0.37121 4.294664,-0.12573 4.294637,-0.1257 z m 22.772608,26.49659 0.18637,-0.59531 11.16399,-25.53229 11.16396,-25.53229 8.73824,-0.0697 8.7382,-0.0697 11.31449,25.86654 11.31448,25.86654 0.12848,0.33073 0.12851,0.33072 h -9.13683 -9.13686 l -1.10251,-2.84427 -1.10252,-2.84427 -0.53451,-1.45521 -0.53452,-1.4552 -0.41751,-0.33073 -0.41751,-0.33073 -9.40827,0.004 -9.40829,0.004 -0.3044,0.19438 -0.3044,0.19437 -1.49434,3.94393 -1.49432,3.94391 -0.26109,0.48786 -0.26112,0.48784 h -8.87206 -8.87206 z m 35.77569,-21.32433 0.33996,-0.21569 -2.35125,-6.05102 -2.35124,-6.05102 -0.2571,-0.0857 -0.25709,-0.0857 -2.29569,5.95805 -2.29568,5.95805 v 0.24407 0.24411 l 0.33073,0.13343 0.33073,0.13345 4.23333,0.0169 4.23333,0.0169 z m 29.95483,-4.27053 v -26.19732 l 13.82447,0.002 13.82448,0.002 2.31159,0.26487 2.31158,0.26485 1.39259,0.36711 1.39258,0.36711 1.84883,0.7006 1.84885,0.70059 1.88672,1.17595 1.88672,1.17594 1.73273,1.83678 1.73273,1.83677 1.08349,2.20099 1.08352,2.20098 0.42696,1.5875 0.42699,1.5875 0.006,3.43958 0.006,3.43958 -0.40785,1.45521 -0.40786,1.45521 -0.47074,1.19062 -0.47075,1.19063 -0.89289,1.4138 -0.89286,1.4138 -1.22357,1.3081 -1.22357,1.30807 -1.8066,1.20105 -1.8066,1.20103 v 0.13369 0.13372 l 3.13174,4.54231 3.13172,4.54234 2.15995,3.20374 2.15993,3.20376 v 0.16968 0.1697 h -9.34795 -9.34791 l -4.43034,-6.62461 -4.43034,-6.62459 -2.29516,0.0761 -2.29518,0.0762 -0.13229,6.4823 -0.13229,6.48229 -8.7974,0.0697 -8.79739,0.0697 z m 27.64895,-0.90186 1.05834,-0.4527 0.76097,-0.71357 0.76096,-0.71356 0.48999,-1.05834 0.49,-1.05833 v -1.5875 -1.5875 l -0.48183,-1.0606 -0.48181,-1.06061 -0.96411,-0.84649 -0.96409,-0.84649 -1.12797,-0.32216 -1.12795,-0.32216 -4.10104,-0.0197 -4.10104,-0.0197 -0.0711,6.18553 -0.0711,6.18552 4.43674,-0.12446 4.43672,-0.12446 z m 40.87813,17.52073 v -9.57127 l -6.3118,-10.60318 -6.31176,-10.6032 -3.37021,-5.66512 -3.37021,-5.66513 -0.13722,-0.35756 -0.13721,-0.35756 9.30905,0.0696 9.30905,0.0696 5.13545,8.73125 5.13543,8.73125 h 0.29271 0.29271 l 5.20927,-8.73125 5.20928,-8.73125 8.19253,-0.0701 8.19256,-0.0701 0.34068,0.13073 0.3407,0.13074 -0.6386,0.99766 -0.6386,0.99766 -5.22898,8.86354 -5.22899,8.86354 -0.84061,1.45521 -0.8406,1.45521 -3.08878,5.17355 -3.08877,5.17356 v 9.57696 9.57696 h -8.86354 -8.86354 z"
       id="path1" />
  </g>
</svg>
