<svg xmlns="http://www.w3.org/2000/svg" xmlns:xlink="http://www.w3.org/1999/xlink" xml:space="preserve" version="1.1" style="shape-rendering:geometricPrecision;text-rendering:geometricPrecision;image-rendering:optimizeQuality;" viewBox="0 0 2009 2555" x="0px" y="0px" fill-rule="evenodd" clip-rule="evenodd"><defs><style type="text/css">
   
    .fil0 {fill:black}
   
  </style></defs><g><path class="fil0" d="M161 0l1357 0c8,0 16,1 24,2 42,6 71,43 68,85 -3,42 -38,74 -80,74l-1279 0c-57,0 -103,46 -103,102l0 0c0,57 46,103 103,103l25 0 0 389 129 -103 135 103 0 -389 1059 0c44,0 79,36 79,80l0 607c-43,-11 -88,-17 -134,-17 -298,0 -538,241 -538,538 0,202 110,377 274,470l-1119 0c-89,0 -161,-73 -161,-161l0 -1722c0,-89 72,-161 161,-161zm1383 1108c257,0 465,209 465,466 0,257 -208,466 -465,466 -258,0 -466,-209 -466,-466 0,-257 208,-466 466,-466zm314 400l1 62 1 61 0 1 0 1 0 0 0 1 -1 1 0 0 0 0 0 0 0 1 0 1 0 0 0 1 0 1 0 0 0 0 0 0 -1 1 0 0 0 0 0 2 -1 0 0 0 0 1 0 0 0 0 0 1 0 0 -1 1 0 0 0 1 -1 0 0 0 0 1 -1 1 0 0 0 0 -1 1 0 0 0 1 0 0 -1 0 0 1 0 0 -1 0 0 0 -1 1 0 0 0 0 -1 1 0 0 0 0 -1 0 0 1 0 0 -1 0 0 0 0 0 -1 1 0 0 -1 0 -1 1 0 0 0 0 -1 0 0 0 0 0 0 0 -1 1 0 0 -1 0 -1 0 0 0 -1 0 -1 1 0 0 -1 0 -1 0 0 0 0 0 0 0 -1 0 -1 0 0 0 -201 3 3 201 0 0 0 1 0 1 0 0 0 1 0 1 -1 0 0 1 0 1 0 0 0 1 0 0 0 1 -1 1 0 0 0 1 0 0 0 0 -1 1 0 0 0 1 0 0 -1 1 0 0 0 0 0 1 0 0 -1 0 0 1 0 0 -1 1 0 0 0 0 0 1 -1 0 0 0 0 1 -1 0 0 0 0 1 -1 0 0 0 0 1 -1 0 0 0 -1 1 0 0 0 0 -1 1 0 0 -1 0 0 0 0 1 0 0 -1 0 0 0 -1 1 0 0 0 0 -1 0 0 0 -1 0 0 1 -1 0 0 0 0 0 -1 0 0 0 -1 0 0 1 0 0 -1 0 0 0 0 0 0 0 -1 0 -1 0 0 0 0 0 0 0 -1 0 0 0 -1 0 0 0 0 0 0 0 -1 0 0 0 -124 2 0 0 0 0 -1 0 0 0 -1 0 0 0 0 0 0 0 -1 0 -1 0 0 0 0 0 0 0 -1 0 -1 0 0 -1 0 0 0 0 -1 0 0 0 -1 0 0 0 0 0 0 0 -1 0 0 0 0 -1 0 0 -1 0 -1 0 0 0 0 0 0 0 -1 -1 0 0 0 0 0 0 -1 0 0 -1 -1 0 0 0 0 0 -1 -1 0 0 -1 0 0 0 0 -1 -1 0 0 -1 0 0 -1 0 0 0 0 0 0 0 -1 -1 0 0 0 0 0 0 -1 -1 0 0 0 0 0 -1 -1 0 0 0 0 0 0 -1 0 0 -1 0 0 -1 0 0 0 0 -1 -1 0 0 0 0 0 -1 0 0 -1 0 0 0 0 -1 0 -1 0 0 -1 -1 0 0 0 -1 0 0 0 -1 0 0 0 0 -1 -1 0 -1 0 0 0 0 0 -1 0 0 0 -1 0 -1 0 0 0 -1 0 -1 -3 -201 -201 3 -1 0 0 0 -1 0 -1 0 0 0 -1 0 -1 0 0 0 -1 0 -1 0 0 -1 -1 0 0 0 -1 0 -1 0 0 0 0 -1 -1 0 0 0 -1 0 0 0 -1 -1 0 0 -1 0 0 -1 -1 0 0 0 -1 -1 0 0 0 0 -1 -1 0 0 -1 0 0 -1 -1 0 0 0 0 -1 -1 0 0 -1 0 0 0 0 -1 -1 0 0 -1 -1 0 0 0 0 0 0 0 -1 0 0 -1 0 0 -1 0 0 0 0 -1 -1 0 0 0 0 0 -1 0 0 0 -1 0 0 -1 0 0 0 0 -1 0 0 0 0 0 -1 0 0 -1 -1 0 0 0 0 0 0 0 -1 0 0 0 0 0 -1 0 -1 0 0 0 0 0 0 0 -1 0 0 -1 -1 0 0 0 0 0 -1 0 0 0 -1 0 0 -1 -123 0 0 0 -2c0,0 0,-1 0,-2l0 0c0,-1 0,-2 1,-3l0 0 0 -1 0 0 0 -1 0 0c1,-2 1,-3 2,-4l0 0 0 0 0 0 0 -1 1 0 0 0 0 -1 0 0c0,-1 1,-1 1,-2 1,-1 2,-2 4,-4l0 0 0 0 0 0 1 0 0 -1 0 0 1 0 0 0 0 -1 0 0c1,0 2,0 2,-1l1 0 0 0 0 0 1 0 0 0 0 -1c1,0 2,0 3,-1l0 0 0 0 1 0 0 0 1 0 0 0 0 0 0 0 1 0 1 -1 0 0 0 0 0 0 1 0 0 0 1 0 0 0 0 0 1 0 0 0 1 0 0 0 198 -3 2 0 -3 -201 0 0 0 0 0 0 0 -1 0 0 1 -1 0 0 0 0 0 0 0 -1 0 0 0 -1 0 0 0 0 0 0 0 -1 0 0 0 0 0 0 0 -1 0 0 0 -1 0 0 1 0 0 0 0 -1 0 0 0 -1 0 0 0 0 0 0 0 -1 0 0 1 0 0 0 0 -1 0 0 0 -1 0 0 0 0 1 -1 0 0 0 0 0 0 0 -1 0 0 1 0 0 -1 0 0 0 0 0 0 1 -1 0 0 0 0 0 0 1 -1 0 0 0 0 1 -1 0 0 0 0 0 0 0 -1 0 0 1 0 0 0 0 -1 0 0 1 0 0 0 0 0 0 0 1 -1 0 0 0 0 0 0 1 0 0 0 0 -1 0 0 1 0 0 0 0 0 0 -1 1 0 0 0 0 0 1 0 0 0 1 -1 0 0 0 0 0 0 1 0 0 0 0 0 0 0 1 -1 1 0 0 0 0 0 0 0 1 0 0 0 1 -1 1 0 0 0 0 0 1 0 1 0 0 0 1 0 1 0 0 0 124 -2 1 0 1 0 0 0 1 0 0 0 0 0 0 0 1 0 1 0 0 0 0 1 0 0 1 0 1 0 0 0 0 0 0 0 1 0 0 0 1 1 0 0 1 0 0 0 1 0 0 0 1 1 1 0 0 0 0 0 1 1 0 0 1 0 0 1 0 0 1 0 0 0 1 1 0 0 1 1 0 0 1 1 0 0 1 0 0 1 0 0 1 1 0 0 0 0 1 1 0 0 0 1 1 0 0 1 0 0 0 1 1 0 0 0 0 1 0 0 0 1 1 0 0 0 0 1 0 1 0 0 0 0 1 1 0 0 0 0 0 1 0 0 0 1 0 0 0 0 0 1 0 0 0 1 0 0 0 0 0 0 1 1 0 1 0 0 0 0 0 0 0 1 2 201 201 -3c1,0 2,0 2,0l0 0 1 0 1 0 0 0 0 0 1 0 1 0 0 1 1 0 0 0 1 0 1 0 0 0 1 1 0 0 1 0 1 0 0 1 1 0 0 0 0 0 1 1 0 0 1 0 0 0 0 1 1 0 1 0 0 1 0 0 0 0 0 0 1 1 0 0 1 0 0 1 0 0 1 0 0 0 0 1 0 0 1 1 0 0 1 1 0 0 0 0 0 0c1,1 1,1 1,2l1 0 0 1 0 0 1 2 0 0c1,3 2,6 2,10z"/></g><text x="0" y="2059" fill="#000000" font-size="5px" font-weight="bold" font-family="'Helvetica Neue', Helvetica, Arial-Unicode, Arial, Sans-serif">Created by popcornarts</text><text x="0" y="2064" fill="#000000" font-size="5px" font-weight="bold" font-family="'Helvetica Neue', Helvetica, Arial-Unicode, Arial, Sans-serif">from the Noun Project</text></svg>